# xmcd CD database file
#
# Track frame offsets:
#	150
#	11007
#	26497
#	38827
#	55421
#	74589
#	94306
#	111486
#	129838
#	142065
#	158558
#	170846
#	182196
#	199670
#	211571
#	227637
#	240007
#
# Disc length: 3400 seconds
#
# Revision: 0
# Processed by: cddbd v1.5.1PL2 Copyright (c) Steve Scherf et al.
# Submitted via: CDex 1.51
#
DISCID=e80d4611
DTITLE=Adry La banda - Mexicano
DYEAR=2002
DGENRE=Merengue
TTITLE0=Guadalajara
TTITLE1=Cien anos
TTITLE2=La cucaracha
TTITLE3=Cancion mixteca
TTITLE4=La bamba
TTITLE5=Volver volver
TTITLE6=Tierra mestiza
TTITLE7=No volvere
TTITLE8=El sinaloense
TTITLE9=La llorona
TTITLE10=El jarabe tapatio
TTITLE11=Juan colorado
TTITLE12=La martiniana
TTITLE13=Cielito lindo
TTITLE14=El cascabel
TTITLE15=La bikina
TTITLE16=La Raspa
EXTD=YEAR: 2002
EXTT0=
EXTT1=
EXTT2=
EXTT3=
EXTT4=
EXTT5=
EXTT6=
EXTT7=
EXTT8=
EXTT9=
EXTT10=
EXTT11=
EXTT12=
EXTT13=
EXTT14=
EXTT15=
EXTT16=
PLAYORDER=
